Coordinates
version=1
nRows=12
nColumns=34
inDegrees=yes

Units are S.I. units (second, meters, Newtons, ...)
If the header above contains a line with 'inDegrees', this indicates whether rotational values are in degrees (yes) or radians (no).

endheader
time	pelvis_tilt	pelvis_list	pelvis_rotation	pelvis_tx	pelvis_ty	pelvis_tz	hip_flexion_r	hip_adduction_r	hip_rotation_r	knee_angle_r	ankle_angle_r	subtalar_angle_r	mtp_angle_r	hip_flexion_l	hip_adduction_l	hip_rotation_l	knee_angle_l	ankle_angle_l	subtalar_angle_l	mtp_angle_l	lumbar_extension	lumbar_bending	lumbar_rotation	arm_flex_r	arm_add_r	arm_rot_r	elbow_flex_r	pro_sup_r	arm_flex_l	arm_add_l	arm_rot_l	elbow_flex_l	pro_sup_l
      1.31666670	     -8.62811729	      0.22005067	     -6.25222708	      0.04314349	      1.26049008	     -0.07309021	      3.90829779	      1.62268290	      1.24273616	      0.00000000	     -0.21122167	     -5.34984504	      0.00000000	      1.27039471	     -4.03054382	     -4.71205165	      0.00000000	      4.80479264	      0.40810752	      0.00000000	     -0.90999846	      1.58173283	      0.00783749	     -0.53915686	     -5.93041338	      8.79307519	     29.78803914	     85.80623960	      5.49317704	     -6.64447481	     27.59835082	     24.62642141	     80.70688806
      1.33333330	     -9.14711173	      0.31103534	     -6.46762169	      0.04225868	      1.26159639	     -0.07172867	      4.51408847	      1.64665453	      2.12839063	      0.00000000	     -0.61765285	     -6.52307139	      0.00000000	      1.88443489	     -4.02235477	     -4.52700844	      0.00000000	      4.22431557	     -0.86376542	      0.00000000	     -0.26625744	      1.54579421	     -0.06762229	     -0.43667262	     -5.95362045	      9.67660143	     29.44356251	     86.56465154	      5.62938588	     -6.69410262	     27.77493986	     24.13045590	     81.72684676
      1.35000000	     -9.12958578	      0.32863988	     -6.60936823	      0.04054141	      1.26166141	     -0.07151260	      4.61848833	      1.64282190	      2.13227664	      0.00000000	     -0.59478945	     -6.52201515	      0.00000000	      1.90815149	     -4.02355221	     -4.51202584	      0.00000000	      4.23061895	     -0.85819436	      0.00000000	     -0.31079505	      1.51956605	     -0.14893977	     -0.45517802	     -5.96639336	      9.67971412	     29.43343615	     86.57188624	      5.73430815	     -6.68260729	     27.77223639	     24.15535180	     81.73885668
      1.36666670	     -9.16402281	      0.36748993	     -6.75767750	      0.04164230	      1.26042369	     -0.07111854	      4.75076565	      1.63170547	      2.17457261	      0.00000000	     -0.56569722	     -6.50546168	      0.00000000	      1.96099036	     -4.01265879	     -4.50050232	      0.00000000	      4.24385277	     -0.85633388	      0.00000000	     -0.39427515	      1.49277177	     -0.24286928	     -0.45952369	     -5.95754223	      9.68781034	     29.42747874	     86.58121736	      5.88164249	     -6.70159337	     27.76468866	     24.18366400	     81.75323409
      1.38333330	     -9.34520080	      0.49193074	     -6.95271443	      0.04084945	      1.26087442	     -0.07067579	      5.11377458	      1.55371790	      2.34139193	      0.00000000	     -0.42356193	     -6.45834360	      0.00000000	      2.21160334	     -3.93884190	     -4.60734548	      0.00000000	      4.33397179	     -0.91595446	      0.00000000	     -0.55339083	      1.36272283	     -0.33075381	     -0.27034039	     -5.88270512	      9.72627408	     29.47908907	     86.62518425	      6.11517981	     -6.84438472	     27.75479376	     24.22899697	     81.82162665
      1.40000000	     -9.36626650	      0.52888411	     -7.24471917	      0.04215624	      1.26269634	     -0.07145149	      5.16727921	      1.51647403	      2.25017183	      0.00000000	     -0.42681210	     -6.49615206	      0.00000000	      2.20965342	     -3.92372355	     -4.59398894	      0.00000000	      4.32203469	     -0.90254226	      0.00000000	     -0.56134858	      1.34118315	     -0.40259104	     -0.32633619	     -5.89690796	      9.73126951	     29.45917289	     86.63163673	      6.14835725	     -6.82685649	     27.75854030	     24.24651758	     81.83288570
      1.41666670	     -9.37873025	      0.57525172	     -7.53805829	      0.04111812	      1.26138759	     -0.07054090	      5.29010782	      1.49989087	      2.16427055	      0.00000000	     -0.41296363	     -6.53218550	      0.00000000	      2.24120312	     -3.89128160	     -4.58149064	      0.00000000	      4.33600617	     -0.89100314	      0.00000000	     -0.60686093	      1.31999348	     -0.45882406	     -0.35362328	     -5.92340032	      9.73404004	     29.44383569	     86.63819511	      6.17671007	     -6.82030891	     27.76128199	     24.26083545	     81.84446510
      1.43333330	     -9.43897660	      0.62703051	     -7.78885090	      0.04152939	      1.26171565	     -0.07004024	      5.44379614	      1.48157117	      2.12026469	      0.00000000	     -0.39207248	     -6.54887350	      0.00000000	      2.29439959	     -3.86775275	     -4.56276937	      0.00000000	      4.37224395	     -0.87188998	      0.00000000	     -0.66618166	      1.29536246	     -0.49734781	     -0.34238572	     -5.95089374	      9.73628511	     29.43741131	     86.64604981	      6.21076923	     -6.83368389	     27.76106657	     24.27430661	     81.85776668
      1.45000000	    -10.11281563	      0.87947002	     -8.18912410	      0.04089059	      1.25971401	     -0.06839032	      6.25798546	      1.38621548	      2.72553599	      0.00000000	     -0.08143357	     -6.29674795	      0.00000000	      2.93793829	     -3.74558178	     -4.86166260	      0.00000000	      4.97870632	     -0.64233139	      0.00000000	     -0.01775366	      1.15360653	     -0.46094466	     -0.32490707	     -5.93154608	      9.93395850	     29.38113714	     86.83005545	      5.92371895	     -7.02014880	     27.78712740	     24.51310215	     82.13563034
      1.46666670	    -10.15275774	      0.90575291	     -8.20044407	      0.04205544	      1.25875120	     -0.06832050	      6.27592803	      1.40418431	      2.72550110	      0.00000000	     -0.07927833	     -6.29726476	      0.00000000	      2.89400756	     -3.76074102	     -4.85719922	      0.00000000	      4.97675521	     -0.63756852	      0.00000000	     -0.02427319	      1.14908230	     -0.47266787	     -0.33035978	     -5.93861556	      9.93384892	     29.37743316	     86.83092709	      5.93902139	     -7.02322906	     27.78562547	     24.51696314	     82.13707286
      1.48333330	    -10.32180209	      0.85168525	     -8.37534332	      0.03922118	      1.25734096	     -0.06804309	      6.43544596	      1.56185288	      2.87923727	      0.00000000	     -0.00140589	     -6.27176720	      0.00000000	      2.98840862	     -3.90706826	     -4.86867067	      0.00000000	      5.09866840	     -0.63500275	      0.00000000	     -0.14160020	      1.12682967	     -0.61412670	     -0.42570565	     -6.04473609	      9.94280902	     29.31040582	     86.85493388	      6.14877463	     -7.23844626	     27.74443307	     24.55860040	     82.17535835
      1.50000000	    -10.37347897	      0.89017669	     -8.39089058	      0.04032427	      1.25949285	     -0.06731686	      6.40586316	      1.58214218	      2.88062124	      0.00304780	     -0.00231429	     -6.27205626	      0.00000000	      2.98756065	     -3.92338556	     -4.86958305	      0.00038078	      5.10099420	     -0.63646455	      0.00000000	     -0.14868159	      1.12445922	     -0.62352655	     -0.43019006	     -6.05124603	      9.94235683	     29.30760711	     86.85553027	      6.15738876	     -7.23791666	     27.74396489	     24.56184273	     82.17662482
